# xmcd
#
# Track frame offsets:
# 150
# 15772
# 31600
# 47265
# 65597
# 79907
# 94950
# 117360
# 132105
# 147400
# 166540
# 180630
# 197112
# 216810
# 235052
# 254487
# 273570
# 293270
# 306785
# 319097
#
# Disc length: 4443 seconds
#
#
# Revision: 0
# Processed by: cddbd v1.5.2PL0 Copyright (c) Steve Scherf et al.
# Submitted via: FreeRIP 2.00 
#
DISCID=0b115914
DTITLE=Tom Cleber - As 20+
DYEAR=1900
DGENRE=Latin
TTITLE0=Primavera
TTITLE1=Diz coração
TTITLE2=Tocando em frente
TTITLE3=Você não me ensinou a te esquecer
TTITLE4=Vida cigana
TTITLE5=Custe o que custar
TTITLE6=Amor perfeito
TTITLE7=Um chopp prá distrair
TTITLE8=Sorte
TTITLE9=Iolanda
TTITLE10=Impossível acreditar que perdi você
TTITLE11=Raizes
TTITLE12=Um dia de domingo
TTITLE13=Se
TTITLE14=Garoto de aluguel
TTITLE15=Ninguém vai tirar você de mim
TTITLE16=Chão de giz
TTITLE17=Azul da cor do mar
TTITLE18=Quero voltar prá Bahia
TTITLE19=Casinha branca
EXTD=Voz e violão
EXTT0=
EXTT1=
EXTT2=
EXTT3=
EXTT4=
EXTT5=
EXTT6=
EXTT7=
EXTT8=
EXTT9=
EXTT10=
EXTT11=
EXTT12=
EXTT13=
EXTT14=
EXTT15=
EXTT16=
EXTT17=
EXTT18=
EXTT19=
PLAYORDER=
